<!DOCTYPE svg PUBLIC "-//W3C//DTD SVG 1.1//EN" "http://www.w3.org/Graphics/SVG/1.1/DTD/svg11.dtd">
<!-- Uploaded to: SVG Repo, www.svgrepo.com, Transformed by: SVG Repo Mixer Tools -->
<svg fill="#000000" width="800px" height="800px" viewBox="-0.72 -0.72 25.44 25.44" xmlns="http://www.w3.org/2000/svg">
<g id="SVGRepo_bgCarrier" stroke-width="0"/>
<g id="SVGRepo_tracerCarrier" stroke-linecap="round" stroke-linejoin="round"/>
<g id="SVGRepo_iconCarrier">
<path d="M22.014 11.974C21.996 6.462 17.521 2 12.008 2 6.493 2 2.019 6.462 2.001 11.974L2 11.948v.112l.001-.023c.017 5.513 4.491 9.977 10.007 9.977 5.514 0 9.988-4.462 10.006-9.974l.001.026v-.118l-.001.026zM9.281 16.557c-2.509 0-4.548-2.039-4.548-4.549s2.039-4.549 4.548-4.549c1.23 0 2.258.451 3.046 1.188l-1.295 1.255c-.325-.309-.899-.673-1.751-.673-1.505 0-2.733 1.251-2.733 2.785 0 1.533 1.229 2.784 2.733 2.784 1.742 0 2.384-1.206 2.502-1.92H9.279V11.18h4.255c.066.286.115.554.115.932 0 2.597-1.742 4.445-4.368 4.445zm10.458-4.095H17.92v1.819h-1.364v-1.819h-1.82v-1.364h1.82v-1.82h1.364v1.82h1.819v1.364z"/>
</g>
</svg>