<svg xmlns="http://www.w3.org/2000/svg" width="32" height="32" id="product"><path style="line-height:normal;text-indent:0;text-align:start;text-decoration-line:none;text-decoration-style:solid;text-decoration-color:#000;text-transform:none;block-progression:tb;white-space:normal;isolation:auto;mix-blend-mode:normal;solid-color:#000;solid-opacity:1" d="M12 3c-.545 0-1 .455-1 1H6.5C5.678 4 5 4.678 5 5.5v23c0 .822.678 1.5 1.5 1.5h18c.822 0 1.5-.678 1.5-1.5v-23c0-.822-.678-1.5-1.5-1.5H20c0-.545-.455-1-1-1h-7zm0 1h7v2.012h-7V4zM6.5 5h.533a1.661 1.661 0 0 0-.283.928v14.914c-.01.676 1.01.676 1 0V5.928c0-.384.293-.678.678-.678H11v.762c0 .545.455 1 1 1h7c.545 0 1-.455 1-1V5.25h2.572c.385 0 .678.294.678.678v16.285h-1.857c-.754 0-1.269.447-1.477.857-.208.411-.201.807-.201.807v1.87H8.428a.665.665 0 0 1-.678-.679v-2.207c.01-.676-1.01-.676-1 0v2.207c0 .921.757 1.678 1.678 1.678h11.787l.01-.002a.5.5 0 0 0 .181-.037l.002-.002a.5.5 0 0 0 .16-.105l3.536-3.534a.5.5 0 0 0 .107-.162l.002-.004a.5.5 0 0 0 .037-.187V5.928c0-.343-.105-.662-.283-.928h.533c.286 0 .5.214.5.5v23c0 .286-.214.5-.5.5h-18a.488.488 0 0 1-.5-.5v-23c0-.286.214-.5.5-.5zm2.477 2.979V14H15V7.979H8.977zM16 8v1h6.5V8H16zm-6.023.979H14V13H9.977V8.979zm.92.521a.5.5 0 0 0-.5.5.5.5 0 0 0 .5.5.5.5 0 0 0 .5-.5.5.5 0 0 0-.5-.5zm1.665.5-.666 1.332-.334-.666L10.896 12H13.562l-1-2zM16 10v1h6.5v-1H16zm0 2v1h6.5v-1H16zm-7 3v1h13.5v-1H9zm0 2v1h13.5v-1H9zm0 2v1h6.75v-1H9zm12.393 4.213h1.15l-.914.912-.914.914v-1.162s.007-.184.094-.356c.086-.17.159-.308.584-.308z" color="#000" enable-background="accumulate" font-family="sans-serif" font-weight="400" overflow="visible"></path></svg>